<svg width="874" height="908" viewBox="0 0 874 908" fill="none" xmlns="http://www.w3.org/2000/svg">
<path d="M467.633 585.081C469.511 581.907 471.418 578.658 472.204 575.024C473.133 570.728 472.423 566.254 471.711 561.913C470.949 557.267 469.247 551.6 464.764 550.879C461.706 550.387 458.856 552.631 456.908 555.128C453.291 559.763 451.381 565.561 448.371 570.642C445.361 575.722 440.534 580.395 434.791 580.296C432.411 575.34 434.936 569.324 438.296 565.025C441.656 560.725 445.961 557.002 447.867 551.831C449.298 547.952 449.21 543.672 449.071 539.52C448.962 536.281 448.816 532.957 447.584 529.979C446.351 527.002 443.782 524.4 440.67 524.154C435.142 523.716 431.683 530.225 430.377 535.823C429.071 541.421 427.788 548.082 422.719 550.415C420.904 547.566 419.844 544.27 419.646 540.859C419.449 537.448 420.121 534.044 421.594 530.989C423.008 528.145 425.103 525.691 426.328 522.754C427.554 519.816 427.683 516.002 425.463 513.782C422.25 510.569 416.921 512.786 413.271 515.448C409.403 518.271 405.791 521.452 402.477 524.955C403.64 517.446 406.99 510.488 412.076 505.018C413.583 503.405 415.262 501.895 416.27 499.906C417.279 497.917 417.446 495.248 415.992 493.583C414.921 492.357 413.257 491.947 411.7 491.599C407.435 490.644 402.968 489.693 398.763 490.902C393.117 492.525 388.844 498.32 388.807 504.405C387.122 496.241 392.852 488.708 397.257 481.723C398.937 479.061 400.521 475.824 399.501 472.822C397.955 468.275 392.035 467.811 387.406 468.164C385.507 468.309 383.47 468.509 382.011 469.78C379.929 471.596 379.819 474.798 379.305 477.571C378.791 480.345 376.923 483.518 374.232 483.124C371.391 474.051 362.514 468.807 354.36 464.417C352.691 463.518 350.815 462.593 349.005 463.118C345.753 464.062 345.311 469.017 347.188 471.931C349.066 474.846 352.268 476.474 354.831 478.756C358.054 481.643 360.255 485.566 361.087 489.901C361.245 490.738 361.329 491.683 360.846 492.373C360.417 492.988 359.658 493.228 358.952 493.421C356.918 493.978 354.79 494.498 353.161 495.878C351.531 497.258 350.59 499.803 351.659 501.685C352.314 502.837 353.539 503.48 354.699 504.062L375.693 514.605C376.972 515.248 378.491 516.485 377.936 517.844C377.676 518.48 377.031 518.835 376.428 519.126C370.831 521.82 364.761 523.292 358.594 523.45C357.883 528.532 362.379 532.919 367.054 534.583C371.73 536.247 376.85 536.211 381.509 537.924C386.169 539.638 390.591 544.149 389.731 549.206C384.143 550.076 378.598 547.898 373.114 546.484C367.63 545.07 361.28 544.586 356.853 548.233C366.089 556.708 377.482 565.791 389.451 562.744C393.059 561.826 396.833 559.823 400.278 561.267C404.409 562.998 405.346 569.303 402.72 573.041C400.095 576.78 395.149 578.078 390.73 577.493C386.311 576.909 382.247 574.77 378.224 572.784C374.2 570.798 369.976 568.899 365.521 568.853C366.802 580.86 375.968 592.953 387.586 592.465C392.198 592.271 396.604 590.168 401.219 590.114C405.835 590.059 411.169 593.421 410.666 598.188C410.178 602.826 404.534 604.985 400.132 604.064C395.73 603.142 391.912 600.295 387.588 599.038C383.264 597.781 377.567 598.926 376.109 603.339C376.013 608.243 379.663 612.341 383.498 615.203C392.91 622.16 404.522 625.128 415.968 623.5C419.045 623.047 422.126 622.26 425.222 622.549C427.868 622.795 430.38 623.816 432.956 624.487C440.281 626.396 451.703 624.411 454.091 615.664C452.819 615.66 451.625 614.516 450.654 614.326C454.761 604.169 462.056 594.511 467.633 585.081Z" fill="#154048"/>
<path d="M424.656 646.254C424.881 643.97 425.104 641.637 424.604 639.4C424.014 636.757 422.469 634.47 420.955 632.258C419.336 629.89 416.933 627.216 414.258 628.062C412.433 628.639 411.429 630.676 410.989 632.604C410.175 636.182 410.607 639.932 410.244 643.59C409.881 647.248 408.404 651.182 405.19 652.723C402.593 650.633 402.446 646.591 403.204 643.271C403.963 639.95 405.395 636.687 405.121 633.285C404.917 630.734 403.767 628.382 402.621 626.116C401.726 624.348 400.789 622.543 399.339 621.232C397.888 619.921 395.791 619.191 394 619.919C390.818 621.211 390.573 625.787 391.29 629.257C392.006 632.728 393.008 636.783 390.794 639.487C389.053 638.41 387.616 636.874 386.628 635.036C385.64 633.197 385.137 631.12 385.168 629.015C385.222 627.042 385.753 625.097 385.677 623.126C385.602 621.155 384.691 619.001 382.887 618.385C380.276 617.495 377.888 620.206 376.547 622.698C375.126 625.34 373.939 628.111 373.001 630.976C371.714 626.484 371.782 621.69 373.198 617.24C373.619 615.925 374.162 614.62 374.21 613.235C374.258 611.851 373.664 610.323 372.427 609.803C371.518 609.419 370.489 609.654 369.534 609.893C366.92 610.549 364.196 611.262 362.172 613.102C360.834 614.371 359.916 616.046 359.548 617.889C359.18 619.732 359.38 621.648 360.121 623.365C357.083 619.301 358.325 613.526 358.973 608.424C359.22 606.479 359.266 604.242 357.927 602.858C355.898 600.763 352.491 602.15 350.013 603.633C348.995 604.241 347.916 604.918 347.434 606.029C346.744 607.616 347.508 609.424 347.937 611.107C348.365 612.789 348.146 615.07 346.549 615.6C342.637 611.352 336.358 610.907 330.7 610.735C329.542 610.7 328.263 610.708 327.393 611.502C325.83 612.93 326.86 615.804 328.653 616.9C330.446 617.997 332.643 618.01 334.654 618.566C337.186 619.273 339.418 620.839 340.996 623.015C341.169 623.207 341.303 623.434 341.389 623.681C341.475 623.928 341.513 624.191 341.499 624.454C341.367 624.905 341.091 625.296 340.717 625.563C339.731 626.437 338.683 627.317 338.134 628.536C337.585 629.756 337.718 631.43 338.795 632.177C339.455 632.635 340.301 632.651 341.095 632.652L355.466 632.672C356.341 632.674 357.503 632.938 357.545 633.847C357.514 634.276 357.334 634.678 357.038 634.978C354.624 638.03 351.632 640.533 348.249 642.335C349.162 645.354 352.788 646.54 355.813 646.165C358.838 645.79 361.671 644.347 364.699 644.004C367.726 643.661 371.344 644.936 372.168 647.983C369.289 650.018 365.649 650.35 362.241 651.089C358.832 651.828 355.182 653.323 353.663 656.578C360.973 658.717 369.637 660.594 375.498 655.577C377.264 654.064 378.844 651.904 381.128 651.748C383.868 651.561 386.011 654.802 385.516 657.607C385.021 660.412 382.609 662.507 380.005 663.41C377.401 664.314 374.594 664.255 371.849 664.271C369.103 664.286 366.27 664.406 363.784 665.618C367.586 671.928 375.789 676.096 382.114 672.596C384.625 671.207 386.53 668.816 389.078 667.502C391.626 666.189 395.454 666.574 396.402 669.361C397.324 672.071 394.747 674.839 392.066 675.55C389.384 676.261 386.531 675.741 383.807 676.245C381.083 676.749 378.214 678.968 378.541 681.822C379.751 684.572 382.832 685.833 385.698 686.356C392.715 687.604 399.926 686.025 405.862 681.941C407.454 680.835 408.962 679.541 410.755 678.841C412.287 678.243 413.945 678.112 415.548 677.769C420.106 676.793 425.937 672.517 425.011 666.997C424.303 667.348 423.346 667.045 422.758 667.21C422.424 660.429 423.987 653.039 424.656 646.254Z" fill="#2B808F"/>
<path d="M543.146 599.942L542.424 599.559C526.54 591.214 509.01 588.283 492.054 585.453C483.394 584.008 474.444 582.513 465.788 580.312C443.458 574.647 414.328 560.586 402.364 525.788C394.217 502.087 395.713 473.754 397.157 446.353C398.569 419.612 400.026 391.961 392.524 368.678C391.247 364.731 389.707 360.898 388.216 357.192C387.198 354.665 386.146 352.051 385.185 349.414C379.442 333.647 377.165 317.323 378.613 302.212C380.284 284.633 387.431 268.318 397.258 259.634C406.291 251.653 417.715 249.002 433.214 251.313C447.854 253.524 461.949 258.631 474.738 266.356C477.533 268.029 480.332 269.856 483.043 271.623C490.04 276.192 497.279 280.916 504.995 283.311C514.608 286.294 524.959 285.681 534.983 285.082C546.114 284.419 557.627 283.732 568.222 287.953C575.816 290.959 593.7 274.114 610.983 257.795C627.921 241.806 643.943 226.713 651.59 228.659C653.333 229.101 654.595 230.389 655.338 232.481C670.232 274.355 710.291 344.084 741.613 374.725C753.837 386.685 759.31 400.443 757.876 415.618C752.473 472.751 650.085 539.374 595.08 575.166C579.431 585.348 567.07 593.388 561.442 598.224C559.049 600.279 556.438 602.257 553.58 602.8C553.026 602.906 552.464 602.96 551.9 602.959C548.827 602.959 545.945 601.428 543.146 599.942ZM611.738 258.658C593.395 275.973 576.088 292.342 567.819 289.042C557.45 284.916 546.056 285.592 535.047 286.246C524.935 286.843 514.472 287.468 504.671 284.428C496.81 281.987 489.505 277.222 482.442 272.612C479.743 270.85 476.953 269.029 474.177 267.368C461.512 259.718 447.553 254.659 433.056 252.466C417.886 250.219 406.751 252.777 397.986 260.522C388.369 269.018 381.377 285.036 379.727 302.326C378.301 317.262 380.552 333.401 386.237 349C387.19 351.618 388.238 354.223 389.251 356.743C390.752 360.467 392.3 364.318 393.586 368.308C401.162 391.804 399.697 419.567 398.28 446.417C396.841 473.702 395.354 501.914 403.426 525.395C415.219 559.706 443.993 573.58 466.051 579.182C474.668 581.369 483.596 582.859 492.234 584.3C509.273 587.148 526.891 590.088 542.933 598.52L543.657 598.903C546.796 600.566 550.042 602.303 553.378 601.651C555.984 601.159 558.45 599.281 560.727 597.321C566.412 592.44 578.8 584.382 594.483 574.177C649.326 538.49 751.409 472.068 756.757 415.504C758.156 400.707 752.802 387.273 740.843 375.574C709.411 344.827 669.221 274.881 654.286 232.886C653.669 231.154 652.7 230.143 651.322 229.794C650.925 229.695 650.518 229.647 650.109 229.65C642.465 229.65 626.858 244.386 611.738 258.658Z" fill="#154048"/>
<path d="M318.921 497.47C321.213 500.271 324.582 501.858 327.861 503.351C348.661 513.012 369.49 522.658 390.35 532.288C396.819 535.274 403.692 538.588 407.555 544.795C410.701 549.882 411.374 556.136 411.599 562.203C412.722 594.873 402.794 626.89 400.233 659.513C399.424 669.874 400.099 681.916 408.005 688.263C412.767 692.09 419.101 692.883 425.076 692.93C495.696 693.443 548.257 611.162 618.832 612.655C623.189 612.749 627.727 613.215 631.365 615.689C634.061 617.509 636.037 620.263 638.374 622.549C646.414 630.39 658.41 632.304 669.281 630.624C673.361 629.987 677.366 628.907 681.231 627.403C698.975 620.589 713.576 605.468 723.145 588.199C734.78 567.197 740.081 543.162 745.202 519.546C747.808 507.692 759.982 477.729 755.489 466.668C753.513 461.86 743.899 456.727 740.575 451.966C736.159 445.735 733.136 438.561 731.725 430.964C729.658 419.809 731.141 408.235 728.94 397.127C726.739 386.02 718.966 374.632 708.05 374.398C700.413 374.212 690.71 378.738 686.487 372.111C684.69 369.265 685.049 365.531 685.543 362.171C691.878 320.4 710.161 277.602 697.179 237.558C663.935 236.812 635.004 259.541 609.083 281.196C608.185 267.801 604.816 251.186 592.237 248.106C585.903 246.566 579.389 249.366 573.369 252.073C550.009 262.714 526.633 273.355 503.243 283.996C500.833 271.955 496.294 260.482 489.856 250.16C478.131 258.094 466.226 266.261 457.601 277.695C446.145 292.91 441.608 312.513 431.949 329.034C414.788 358.484 381.051 379.719 378.31 414.022C377.502 423.637 379.119 434.417 373.324 441.932C371.347 444.452 368.787 446.319 366.046 447.906C364.878 448.606 363.71 449.259 362.542 449.866C354.097 454.44 345.651 458.967 337.16 463.54C330.781 466.994 324.132 470.634 319.82 476.655C315.462 482.676 314.204 491.729 318.921 497.47Z" fill="#F2F2F2"/>
<path d="M318.921 497.47C321.213 500.271 324.582 501.858 327.861 503.351C348.661 513.012 369.49 522.658 390.35 532.288C396.819 535.274 403.692 538.588 407.555 544.795C410.701 549.882 411.374 556.136 411.599 562.203C412.722 594.873 402.794 626.89 400.233 659.513C399.424 669.874 400.099 681.916 408.005 688.263C412.767 692.09 419.101 692.883 425.076 692.93C495.696 693.443 548.257 611.162 618.832 612.655C623.189 612.749 627.727 613.215 631.365 615.689C634.061 617.509 636.037 620.263 638.374 622.549C646.414 630.39 658.41 632.304 669.281 630.624C673.361 629.987 677.367 628.907 681.231 627.403C681.95 624.836 682.624 622.27 683.252 619.703C689.901 592.213 690.665 562.11 705.849 538.541C708.23 534.855 711.015 531.213 711.779 526.827C712.947 520.013 708.949 513.479 704.861 507.972C677.457 470.961 639.227 444.452 607.511 411.362C596.722 400.07 586.681 388.033 577.457 375.332C569.46 364.271 560.296 351.623 546.998 350.689C541.518 350.269 536.127 352.043 530.961 353.956C511.149 361.377 492.102 371.878 477.098 387.233C464.654 399.927 455.4 415.609 443.854 429.237C432.308 442.866 417.439 454.907 400.054 456.586C388.283 457.753 377.098 452.479 366.046 447.906C364.878 448.606 363.71 449.259 362.542 449.866C354.096 454.44 345.651 458.967 337.16 463.54C330.781 466.994 324.132 470.634 319.82 476.655C315.462 482.676 314.204 491.73 318.921 497.47Z" fill="#E6E6E6"/>
<path d="M525.289 469.045H515.253L619.124 238.718H629.16L525.289 469.045ZM557.249 469.045H547.214L651.084 238.718H661.12L557.249 469.045ZM589.209 469.045H579.174L683.045 238.718H693.08L589.209 469.045ZM621.17 469.045H611.134L715.005 238.718H725.04L621.17 469.045ZM653.13 469.045H643.094L746.965 238.718H757L653.13 469.045ZM685.09 469.045H675.054L778.925 238.718H788.961L685.09 469.045Z" fill="white"/>
<path d="M227.341 322.373L198.667 304.546C198.224 304.301 197.831 303.967 197.512 303.564C197.193 303.161 196.954 302.696 196.808 302.197C196.661 301.698 196.611 301.174 196.66 300.654C196.709 300.135 196.856 299.631 197.092 299.17L224.042 243.102C225.036 241.166 229.171 240.455 231.035 241.487L261.358 258.286C261.801 258.532 262.194 258.866 262.513 259.269C262.832 259.672 263.071 260.136 263.217 260.636C263.364 261.135 263.414 261.659 263.365 262.178C263.316 262.698 263.169 263.202 262.933 263.663L234.164 319.709C233.17 321.646 229.204 323.405 227.341 322.373Z" fill="#154048"/>
<path d="M226.665 322.081L196.342 305.282C195.898 305.036 195.506 304.702 195.187 304.299C194.868 303.896 194.629 303.432 194.482 302.933C194.336 302.433 194.286 301.909 194.335 301.39C194.383 300.871 194.53 300.366 194.767 299.906L223.535 243.859C224.013 242.929 224.826 242.234 225.796 241.928C226.767 241.621 227.815 241.727 228.71 242.222L259.033 259.022C259.476 259.267 259.868 259.601 260.187 260.004C260.506 260.407 260.746 260.872 260.892 261.371C261.038 261.87 261.088 262.394 261.04 262.914C260.991 263.433 260.844 263.937 260.608 264.398L231.839 320.444C231.603 320.905 231.281 321.312 230.894 321.644C230.506 321.975 230.059 322.224 229.578 322.376C229.098 322.528 228.593 322.58 228.093 322.53C227.593 322.479 227.108 322.327 226.665 322.081Z" fill="#2B808F"/>
<path d="M228.285 245.452L256.688 261.188C257.098 261.415 257.46 261.724 257.755 262.096C258.05 262.469 258.271 262.898 258.407 263.36C258.542 263.821 258.588 264.306 258.543 264.786C258.498 265.266 258.362 265.732 258.144 266.157L231.872 317.339C231.431 318.198 230.679 318.84 229.782 319.124C228.885 319.408 227.917 319.31 227.089 318.851L198.686 303.115C197.859 302.657 197.241 301.876 196.968 300.944C196.695 300.012 196.789 299.006 197.23 298.146L223.502 246.965C223.72 246.539 224.017 246.163 224.376 245.856C224.735 245.55 225.148 245.32 225.592 245.18C226.036 245.039 226.503 244.991 226.965 245.038C227.427 245.085 227.875 245.225 228.285 245.452Z" fill="white"/>
<path d="M243.836 252.17C243.774 252.291 243.678 252.39 243.561 252.455C243.445 252.52 243.312 252.548 243.18 252.534C243.048 252.521 242.923 252.467 242.821 252.38C242.719 252.293 242.643 252.176 242.605 252.045C242.566 251.913 242.566 251.773 242.604 251.641C242.643 251.509 242.718 251.392 242.82 251.305C242.922 251.218 243.047 251.164 243.179 251.15C243.311 251.137 243.443 251.164 243.56 251.228C243.717 251.315 243.834 251.463 243.885 251.64C243.937 251.816 243.919 252.006 243.836 252.169L243.836 252.17ZM245.597 253.145C245.574 253.191 245.537 253.228 245.493 253.253C245.449 253.278 245.399 253.288 245.349 253.283C245.299 253.278 245.252 253.258 245.213 253.225C245.174 253.192 245.146 253.148 245.131 253.098C245.116 253.048 245.116 252.995 245.131 252.945C245.145 252.895 245.173 252.851 245.212 252.818C245.251 252.785 245.298 252.764 245.348 252.759C245.398 252.754 245.448 252.764 245.492 252.788C245.522 252.805 245.548 252.827 245.569 252.853C245.59 252.88 245.606 252.911 245.616 252.944C245.626 252.977 245.629 253.012 245.626 253.046C245.622 253.081 245.613 253.114 245.597 253.145Z" fill="white"/>
<path d="M617.254 699.452C619.408 700.373 621.61 701.305 623.935 701.451C626.683 701.624 629.369 700.686 631.974 699.761C634.762 698.77 638.082 697.048 638.061 693.987C638.047 691.899 636.366 690.235 634.623 689.196C631.387 687.269 627.611 686.6 624.162 685.122C620.714 683.645 617.33 680.916 616.795 677.081C619.605 674.981 623.58 676.038 626.582 677.829C629.584 679.621 632.329 682.1 635.718 682.833C638.26 683.382 640.892 682.879 643.44 682.355C645.428 681.946 647.463 681.504 649.173 680.373C650.883 679.243 652.22 677.261 652.05 675.164C651.745 671.436 647.369 669.809 643.779 669.52C640.189 669.232 635.945 669.07 633.979 665.936C635.549 664.431 637.473 663.383 639.557 662.897C641.641 662.411 643.811 662.505 645.849 663.169C647.751 663.815 649.484 664.955 651.423 665.466C653.363 665.977 655.73 665.667 656.87 663.958C658.519 661.484 656.597 658.165 654.574 656.011C652.431 653.728 650.092 651.652 647.587 649.809C652.341 649.803 656.983 651.312 660.887 654.131C662.039 654.967 663.145 655.928 664.477 656.393C665.81 656.858 667.474 656.692 668.35 655.55C668.995 654.711 669.076 653.56 669.128 652.486C669.274 649.546 669.397 646.472 668.214 643.797C667.38 642.013 666.026 640.547 664.345 639.609C662.663 638.67 660.739 638.307 658.847 638.57C663.71 636.598 668.954 639.632 673.722 641.841C675.539 642.683 677.701 643.401 679.448 642.41C682.092 640.908 681.764 636.916 681.066 633.87C680.779 632.621 680.444 631.285 679.508 630.446C678.17 629.247 676.184 629.507 674.419 629.453C672.654 629.399 670.501 628.484 670.465 626.65C675.769 623.816 678.082 617.359 679.944 611.472C680.325 610.267 680.701 608.922 680.189 607.77C679.269 605.703 676.165 605.922 674.562 607.476C672.958 609.03 672.287 611.331 671.144 613.276C669.698 615.722 667.506 617.596 664.917 618.6C664.678 618.724 664.418 618.796 664.151 618.813C663.885 618.829 663.618 618.79 663.367 618.697C662.967 618.423 662.67 618.016 662.523 617.543C661.968 616.247 661.426 614.884 660.405 613.942C659.384 613 657.716 612.638 656.666 613.545C656.024 614.101 655.754 614.984 655.515 615.816L651.19 630.895C650.927 631.814 650.321 632.954 649.425 632.725C649.017 632.564 648.68 632.254 648.477 631.854C646.233 628.406 644.694 624.516 643.956 620.425C640.746 620.48 638.506 623.93 637.965 627.217C637.423 630.504 637.978 633.91 637.405 637.192C636.832 640.473 634.507 643.887 631.297 643.84C630.18 640.208 630.948 636.289 631.251 632.49C631.553 628.69 631.192 624.411 628.481 621.841C624.212 628.873 619.791 637.405 622.914 645.06C623.856 647.367 625.484 649.673 624.951 652.117C624.312 655.048 620.518 656.327 617.939 654.968C615.359 653.608 614.044 650.448 613.946 647.444C613.848 644.44 614.745 641.511 615.552 638.625C616.359 635.739 617.092 632.728 616.658 629.757C609.382 631.857 602.872 639.218 604.38 646.906C604.979 649.957 606.734 652.673 607.248 655.742C607.761 658.81 606.241 662.712 603.247 662.873C600.334 663.029 598.415 659.494 598.527 656.467C598.638 653.439 599.999 650.601 600.325 647.59C600.651 644.579 599.352 640.904 596.478 640.391C593.442 640.838 591.292 643.694 589.924 646.545C586.609 653.537 585.984 661.58 588.178 669.033C588.777 671.036 589.583 673.006 589.727 675.099C589.849 676.886 589.48 678.665 589.334 680.451C588.917 685.527 591.329 692.929 596.974 693.61C596.845 692.763 597.427 691.849 597.443 691.182C604.138 692.862 610.855 696.717 617.254 699.452Z" fill="#2B808F"/>
<path d="M583.295 697.121C583.282 697.042 583.288 696.961 583.314 696.885C586.504 687.522 597.818 680.016 612.146 670.513C627.808 660.124 647.302 647.197 661.632 627.367C661.707 627.271 661.814 627.209 661.932 627.194C662.05 627.179 662.169 627.212 662.263 627.286C662.358 627.36 662.421 627.47 662.44 627.592C662.458 627.714 662.431 627.838 662.362 627.939C647.933 647.906 628.363 660.885 612.639 671.314C598.461 680.72 587.262 688.146 584.177 697.2C584.144 697.3 584.079 697.385 583.994 697.442C583.909 697.5 583.807 697.526 583.706 697.517C583.605 697.508 583.509 697.464 583.435 697.393C583.36 697.321 583.311 697.225 583.295 697.121Z" fill="white"/>
<path d="M585.934 508.516C573.204 524.265 564.491 543.086 560.594 563.248C556.787 583.25 555.954 602.479 561.441 622.389C562.859 627.538 564.953 633.004 569.431 635.655C573.948 638.328 579.817 637.307 584.248 634.483C588.679 631.658 591.976 627.306 595.148 623.027C609.526 603.634 623.78 582.905 627.981 558.818C631.457 538.89 627.725 518.27 630.296 498.194C631.049 492.313 637.819 484.079 636.744 478.973C636.17 476.249 611.881 486.356 609.746 487.56C601.053 492.466 593.938 498.962 587.437 506.694C586.93 507.297 586.429 507.904 585.934 508.517V508.516Z" fill="#0F4960"/>
<path d="M622.219 535.449C618.856 534.856 615.464 534.455 612.058 534.248C609.658 534.053 607.17 533.856 604.641 534.21C601.164 534.709 597.984 536.239 595.063 537.928C602.119 519.627 611.229 503.619 622.933 494.613C623.075 494.504 623.195 494.366 623.286 494.209C623.377 494.051 623.437 493.876 623.463 493.695C623.489 493.513 623.48 493.328 623.437 493.15C623.394 492.971 623.318 492.804 623.212 492.656C623.107 492.509 622.975 492.384 622.823 492.29C622.672 492.195 622.504 492.133 622.329 492.106C622.154 492.079 621.975 492.088 621.804 492.132C621.632 492.177 621.471 492.256 621.329 492.366C602.866 506.575 590.77 536.772 582.975 566.581C582.434 565.691 581.923 564.782 581.442 563.855L577.054 555.486C576.254 553.759 575.062 552.259 573.582 551.114L570.202 548.124C570.067 548.003 569.911 547.911 569.743 547.853C569.574 547.795 569.396 547.772 569.219 547.786C569.041 547.8 568.869 547.85 568.71 547.934C568.552 548.017 568.411 548.132 568.295 548.273C568.18 548.413 568.092 548.576 568.038 548.751C567.983 548.927 567.962 549.112 567.977 549.296C567.991 549.48 568.04 549.659 568.122 549.823C568.203 549.988 568.315 550.133 568.451 550.252L571.84 553.246C572.501 553.79 573.109 554.4 573.655 555.067C574.047 555.624 574.394 556.214 574.693 556.831L579.082 565.196C579.842 566.747 580.722 568.23 581.714 569.632C581.83 569.762 581.97 569.867 582.126 569.939C578.623 583.885 576.04 597.595 574.183 609.413C574.114 609.294 574.068 609.125 574.003 609.016L570.389 603.113C569.236 600.942 567.406 599.244 565.201 598.298L562.404 596.768C562.249 596.676 562.078 596.617 561.901 596.597C561.723 596.576 561.544 596.594 561.373 596.649C561.203 596.704 561.045 596.794 560.91 596.915C560.775 597.036 560.665 597.185 560.588 597.352C560.422 597.68 560.387 598.063 560.493 598.416C560.598 598.77 560.834 599.066 561.15 599.239L563.97 600.783C564.98 601.267 565.916 601.905 566.745 602.675C567.266 603.269 567.725 603.918 568.115 604.612L571.74 610.53C571.934 610.813 572.089 611.122 572.199 611.449C572.348 612.116 572.588 612.943 572.834 613.767C573.002 614.339 573.151 614.872 573.282 615.374C570.91 631.686 569.995 643.287 569.884 644.765C569.86 645.073 569.935 645.38 570.097 645.639C570.258 645.897 570.498 646.093 570.779 646.194C570.888 646.234 571.002 646.257 571.117 646.265C571.293 646.28 571.47 646.259 571.638 646.203C571.806 646.146 571.961 646.056 572.095 645.937C572.229 645.818 572.34 645.673 572.419 645.509C572.499 645.346 572.547 645.167 572.56 644.985C572.596 644.529 573.993 626.859 578.015 603.509L585.219 593.82C586.111 592.513 587.149 591.322 588.311 590.269C589.78 589.063 591.73 588.21 594.471 587.591C597.311 586.894 600.242 586.69 603.146 586.986C603.501 587.028 603.857 586.921 604.137 586.689C604.416 586.458 604.595 586.121 604.635 585.752C604.675 585.383 604.572 585.012 604.349 584.722C604.126 584.432 603.802 584.246 603.447 584.204C600.249 583.879 597.021 584.1 593.892 584.859C591.911 585.308 589.001 586.132 586.643 588.08C585.301 589.275 584.103 590.634 583.077 592.128L579.091 597.488C582.314 580.039 586.959 560.168 593.509 542.098C596.971 539.943 600.867 537.574 605.007 536.979C607.249 536.666 609.592 536.851 611.857 537.031C615.162 537.234 618.454 537.622 621.719 538.194C622.069 538.262 622.431 538.184 622.726 537.975C623.02 537.767 623.223 537.445 623.29 537.081C623.327 536.901 623.329 536.714 623.295 536.533C623.261 536.351 623.192 536.179 623.092 536.027C622.992 535.874 622.863 535.744 622.713 535.645C622.563 535.545 622.395 535.479 622.219 535.449H622.219Z" fill="white"/>
<path d="M682.721 574.058L705.407 566.625C711.01 560.15 715.918 553.061 720.048 545.484C725.518 535.251 729.231 524.107 732.349 512.859C733.178 509.871 733.958 506.859 734.69 503.824L719.888 512.54L737.649 489.66C741.022 470.81 741.867 451.561 737.51 433.048C735.737 425.514 732.894 417.836 727.165 412.863C718.004 404.912 703.514 406.449 694.036 413.987C684.559 421.526 679.447 433.693 677.126 445.857C676.923 446.922 676.823 448 676.654 449.07L688.908 476.508L675.108 462.884C674.631 469.541 674.333 476.225 673.68 482.864C672.184 498.088 668.702 513.051 664.131 527.599C663.053 531.032 661.9 534.456 660.65 537.84L661.341 561.285L656.14 548.755C653.092 555.477 649.265 561.787 644.744 567.545C639.255 574.404 632.62 580.189 625.65 585.397C613.484 594.488 599.968 602.14 590.388 614.111C578.381 629.111 574.068 648.683 567.511 666.52C563.534 677.337 566.346 679.579 576.635 674.279C583.698 670.626 589.948 665.48 594.985 659.17C599.872 653.035 603.518 645.927 608.323 639.722C622.885 620.914 646.127 612.469 666.143 600.213C677.529 593.201 688.059 584.786 697.503 575.15L682.721 574.058Z" fill="#154048"/>
<path d="M571.133 686.322C570.836 686.236 570.566 686.068 570.353 685.836C570.139 685.605 569.989 685.318 569.918 685.005C569.517 683.25 560.863 641.43 624.381 597.365C684.529 555.631 708.137 512.218 708.591 442.521C708.589 442.283 708.632 442.047 708.719 441.827C708.806 441.606 708.934 441.406 709.096 441.238C709.258 441.069 709.45 440.936 709.662 440.845C709.874 440.755 710.101 440.709 710.33 440.71C710.559 440.712 710.786 440.76 710.997 440.854C711.208 440.947 711.398 441.083 711.558 441.253C711.718 441.424 711.844 441.626 711.928 441.847C712.012 442.069 712.053 442.306 712.048 442.544C711.581 513.609 687.541 557.852 626.298 600.345C564.757 643.043 573.185 683.774 573.276 684.184C573.328 684.413 573.337 684.65 573.3 684.883C573.264 685.115 573.184 685.338 573.065 685.538C572.946 685.738 572.79 685.912 572.606 686.049C572.422 686.187 572.213 686.285 571.992 686.338C571.71 686.41 571.413 686.405 571.133 686.322Z" fill="white"/>
<path fill-rule="evenodd" clip-rule="evenodd" d="M285.583 436.444V638.32C285.58 643.794 283.485 649.043 279.759 652.914C276.033 656.785 270.981 658.961 265.712 658.965H189.232C183.971 658.949 178.931 656.767 175.216 652.897C171.502 649.028 169.416 643.785 169.416 638.32V436.444C169.415 431.053 171.449 425.878 175.082 422.028C178.714 418.179 183.655 415.963 188.842 415.857V397.121C188.842 394.66 189.308 392.224 190.214 389.95C191.12 387.677 192.449 385.611 194.123 383.871C195.798 382.131 197.787 380.751 199.975 379.81C202.163 378.869 204.509 378.385 206.877 378.385H248.123C250.491 378.385 252.836 378.869 255.025 379.81C257.213 380.752 259.201 382.132 260.876 383.871C262.551 385.611 263.879 387.677 264.785 389.95C265.691 392.224 266.158 394.66 266.157 397.121V415.858C271.334 415.998 276.255 418.225 279.88 422.066C283.506 425.908 285.55 431.064 285.583 436.444Z" fill="#BFEAF2"/>
<path d="M169.414 600.545H285.566V614.389H169.414V600.545ZM169.414 539.109H285.566V552.953H169.414V539.109ZM169.414 477.673H285.566V491.517H169.414V477.673Z" fill="white"/>
<path d="M212.76 466.48L251.157 470.414L232.053 510.505L269.272 527.853L200.358 601.875L225.944 537.695L200.748 523.257L212.76 466.48Z" fill="#0F4960"/>
<path opacity="0.1" fill-rule="evenodd" clip-rule="evenodd" d="M285.583 436.444V638.32C285.58 643.794 283.485 649.043 279.759 652.914C276.033 656.785 270.981 658.961 265.712 658.965H189.232C183.971 658.949 178.931 656.767 175.216 652.897C171.502 649.028 169.416 643.785 169.416 638.32V598.766C171.894 598.302 174.422 598.185 176.93 598.419C186.727 599.286 195.354 605.127 203.37 610.968C211.386 616.866 219.568 623.112 229.197 625.078C238.827 627.043 250.294 623.285 254.134 613.917C256.305 608.713 255.692 602.756 255.581 597.031C254.914 569.042 265.656 542.037 267.214 514.106C268.328 494.85 265.044 475.651 265.545 456.394C265.767 448.472 268.328 423.201 278.737 420.946C280.882 422.867 282.604 425.245 283.786 427.919C284.967 430.594 285.58 433.501 285.583 436.444Z" fill="black"/>
<path fill-rule="evenodd" clip-rule="evenodd" d="M550.948 401.103C546.517 398.143 543.333 396.231 541.479 391.108C540.134 387.392 540.903 384.739 542.049 380.952C543.808 375.137 549.32 373.707 549.917 367.643C550.45 362.225 544.628 359.913 545.349 354.518C546.162 348.436 549.435 345.393 554.186 341.739C561.005 336.494 566.605 332.122 574.778 334.49C581.16 336.339 585.206 341.115 585.718 347.979C586.278 355.49 578.64 357.434 576.078 364.481C574.393 369.119 574.557 372.071 573.931 376.985C572.602 387.435 577.972 395.618 571.688 403.894C569.909 406.237 567.577 406.352 564.704 406.309C558.991 406.227 555.754 404.314 550.948 401.103Z" fill="black"/>
<path fill-rule="evenodd" clip-rule="evenodd" d="M577.476 381.161C575.194 387.406 564.897 396.774 551.871 405.737C529.106 421.351 497.879 435.634 485.077 429.678C476.115 424.069 465.057 397.256 451.902 349.24C451.29 346.985 450.621 344.672 450.01 342.301L459.361 338.426L492.035 407.704C508.233 397.931 525.34 388.466 543.355 379.311C556.547 372.082 578.979 372.14 577.476 381.161Z" fill="#FFC7A1"/>
<path opacity="0.1" fill-rule="evenodd" clip-rule="evenodd" d="M551.871 405.737C529.106 421.351 497.879 435.634 485.077 429.678C476.115 424.068 465.057 397.256 451.902 349.24C452.294 349.71 452.647 350.213 452.959 350.743C455.353 354.734 457.134 359.071 458.971 363.35C463.313 373.585 467.71 383.82 472.052 394.056C474.835 400.591 477.896 407.472 483.351 411.809C489.641 416.725 498.213 417.592 505.95 415.799C513.632 414.065 520.645 410.074 527.491 405.969C534.337 401.921 541.24 397.757 548.81 395.675C549.278 395.502 549.789 395.502 550.257 395.675C550.438 395.811 550.59 395.984 550.705 396.183C550.82 396.382 550.895 396.603 550.925 396.832C551.793 399.709 552.115 402.733 551.871 405.737Z" fill="black"/>
<path fill-rule="evenodd" clip-rule="evenodd" d="M459.34 338.431C458.752 333.61 452.602 324.085 446.899 321.412C441.196 318.74 438.392 339.896 443.209 342.44C448.026 344.984 450.032 342.279 450.032 342.279L459.34 338.431Z" fill="#FFC7A1"/>
<path fill-rule="evenodd" clip-rule="evenodd" d="M533.002 695.743C526.211 710.026 512.24 720.088 497.657 721.187C495.674 721.37 493.679 721.351 491.7 721.129C489.032 720.877 486.4 720.315 483.852 719.452C477.952 717.37 472.33 713.496 467.432 707.597C475.726 696.09 486.747 687.435 500.495 681.633L501.052 681.864L532.724 695.627L533.002 695.743Z" fill="#5B5858"/>
<path fill-rule="evenodd" clip-rule="evenodd" d="M497.768 747.903C494.206 748.598 490.086 749.523 485.745 750.216C476.282 751.778 465.428 752.53 455.464 748.771C451.011 736.454 471.328 745.59 484.409 728.473C485.597 730.107 487.047 731.515 488.695 732.637C493.537 735.875 496.432 732.174 496.432 732.174C498.492 737.841 498.937 743.104 497.768 747.903Z" fill="#2B808F"/>
<path fill-rule="evenodd" clip-rule="evenodd" d="M500.272 698.172L499.883 701.41L497.656 721.187L496.432 732.174C496.432 732.174 493.537 735.875 488.695 732.637C487.046 731.515 485.596 730.107 484.409 728.473L483.852 719.452L482.683 699.675L482.516 696.842L492.758 697.594L500.272 698.172Z" fill="#FFC7A1"/>
<path fill-rule="evenodd" clip-rule="evenodd" d="M554.599 515.321C543.689 538.625 526.489 555.916 513.298 573.669L532.724 695.627L532.779 695.858C522.537 709.737 511.794 704.822 499.883 701.41C497.486 700.688 495.051 700.109 492.591 699.675C489.307 699.154 485.967 699.154 482.683 699.675C477.841 700.485 472.775 702.798 467.432 707.597L467.376 707.656L486.357 575.577C494.15 539.897 507.453 503.851 526.267 467.439L564.563 478.543C563.399 491.325 560.023 503.784 554.599 515.321Z" fill="black"/>
<path opacity="0.1" fill-rule="evenodd" clip-rule="evenodd" d="M532.724 695.627L533.002 695.743C526.211 710.026 512.24 720.088 497.657 721.187L496.432 732.174C498.492 737.841 498.937 743.104 497.768 747.903C494.206 748.598 490.086 749.523 485.745 750.216C484.312 749.141 483.117 747.761 482.238 746.168C484.907 741.944 487.075 737.401 488.695 732.637C490.027 728.902 491.033 725.051 491.701 721.129C492.423 716.873 492.759 712.555 492.702 708.233C492.647 705.4 492.48 702.509 492.591 699.675C492.591 698.978 492.647 698.281 492.758 697.594C492.91 696.176 493.208 694.78 493.648 693.429C495.152 689.035 498.269 685.565 501.052 681.864C501.052 681.806 501.108 681.748 501.163 681.691C508.94 670.986 512.859 657.788 512.24 644.392C511.071 621.029 496.209 598.766 500.885 575.924C502.443 568.291 506.061 561.352 509.624 554.585C512.63 548.86 515.58 543.194 518.585 537.527C522.537 529.951 526.768 522.144 533.781 517.576C539.848 513.644 547.864 512.834 554.599 515.321C543.689 538.625 526.489 555.916 513.298 573.669L532.724 695.627Z" fill="black"/>
<path fill-rule="evenodd" clip-rule="evenodd" d="M600.409 696.379C595.622 711.472 583.153 723.442 568.849 726.623C568.401 726.799 567.933 726.916 567.457 726.97C563.317 727.789 559.065 727.769 554.932 726.912C548.866 725.756 542.743 722.806 537.065 717.601C537.121 717.544 537.121 717.486 537.177 717.428C543.856 704.879 553.578 694.779 566.343 687.127L569.016 687.878L600.186 696.321L600.409 696.379Z" fill="black" fill-opacity="0.67"/>
<path fill-rule="evenodd" clip-rule="evenodd" d="M572.578 753.108C569.238 754.264 565.453 755.71 561.334 756.982C552.094 759.989 541.295 762.36 530.776 760.047C524.708 748.481 546.027 754.611 556.714 735.817C563.004 742.815 566.956 740.154 568.459 738.535C568.714 738.275 568.939 737.984 569.127 737.668C571.91 742.988 573.023 748.134 572.578 753.108Z" fill="#2B808F"/>
<path fill-rule="evenodd" clip-rule="evenodd" d="M569.126 737.668C568.938 737.984 568.714 738.275 568.459 738.535C566.956 740.155 563.004 742.815 556.714 735.818L554.933 726.912L551.148 707.482L550.591 704.764L563.56 703.839L568.348 703.492L568.403 706.73L568.848 726.623L569.126 737.668Z" fill="#FFC7A1"/>
<path fill-rule="evenodd" clip-rule="evenodd" d="M600.186 696.321L600.242 696.495C591.948 711.703 580.649 708.349 568.403 706.73C566.702 706.496 564.994 706.323 563.282 706.21C559.33 705.978 555.267 706.152 551.148 707.482C546.472 708.985 541.796 711.935 537.177 717.428L537.01 717.601L538.123 584.136C541.073 547.646 549.422 510 563.171 471.198L584.823 474.206L602.58 476.692C604.472 521.103 580.204 549.786 564.563 578.295L600.186 696.321Z" fill="black"/>
<path opacity="0.1" fill-rule="evenodd" clip-rule="evenodd" d="M600.186 696.321L600.409 696.379C595.622 711.472 583.153 723.442 568.848 726.623L569.127 737.668C571.91 742.988 573.023 748.135 572.578 753.108C569.238 754.265 565.453 755.71 561.334 756.982C564.841 751.199 567.735 745.07 568.458 738.535C568.627 737.232 568.683 735.916 568.626 734.603C568.545 732.018 568.152 729.453 567.457 726.97C565.842 720.031 562.948 713.264 563.282 706.21C563.292 705.707 563.329 705.204 563.394 704.706C563.423 704.412 563.478 704.122 563.56 703.839C564.229 699.444 566.176 695.338 567.791 691.232C568.236 690.133 568.626 689.035 569.016 687.878C574.439 672.394 575.501 655.624 572.077 639.534C567.847 619.873 557.048 601.484 557.549 581.36C557.772 573.9 559.553 566.556 561.612 559.385C565.009 547.796 569.195 536.472 574.136 525.498C578.422 515.957 583.376 506.531 585.603 496.238C586.994 489.876 587.272 483.053 585.658 476.75C585.431 475.885 585.152 475.035 584.824 474.206L602.579 476.692C604.472 521.103 580.204 549.786 564.563 578.295L600.186 696.321Z" fill="black"/>
<path fill-rule="evenodd" clip-rule="evenodd" d="M604.25 486.349L604.806 487.564C596.791 489.414 586.215 492.421 575.027 494.213C553.931 497.567 530.831 496.7 519.42 475.882C548.198 444.308 543.633 432.338 539.626 419.558L539.57 419.5C539.403 418.922 539.236 418.402 539.069 417.824C536.175 408.05 534.449 397.237 548.754 376.477C563.394 369.595 580.241 369.749 599.296 376.94C602.914 386.192 605.363 397.314 606.643 410.306C608.758 430.95 607.96 456.298 604.25 486.349Z" fill="#40C0D7"/>
<path opacity="0.1" fill-rule="evenodd" clip-rule="evenodd" d="M604.25 486.349L604.806 487.564C596.791 489.414 586.215 492.421 575.027 494.213C578.278 487.729 582.237 481.655 586.827 476.113C602.079 457.493 592.171 440.087 593.062 429.215C593.952 418.402 573.413 419.558 573.413 419.558C573.413 419.558 555.49 435.114 539.626 419.558L539.57 419.5C539.403 418.922 539.236 418.402 539.069 417.824C548.42 421.987 562.336 424.763 568.292 415.163C572.689 408.05 593.841 409.033 606.643 410.306C608.758 430.95 607.96 456.298 604.25 486.349Z" fill="black"/>
<path fill-rule="evenodd" clip-rule="evenodd" d="M566.43 371.905C570.166 380.406 574.834 380.507 580.432 372.209C577.765 369.344 577.753 364.059 580.395 356.353L568.946 355.604C571.796 363.485 570.957 368.919 566.43 371.905Z" fill="#FFC7A1"/>
<path fill-rule="evenodd" clip-rule="evenodd" d="M561.552 337.642C559.91 346.651 560.424 355.902 563.095 365.395C565.631 369.593 571.931 367.991 581.996 360.59L579.404 335.373L561.552 337.642Z" fill="#FFC7A1"/>
<path d="M471.874 198.204C471.878 207.092 469.803 215.847 465.826 223.716C461.849 231.585 456.091 238.332 449.046 243.375C441.993 238.338 436.225 231.594 432.24 223.725C428.255 215.855 426.173 207.096 426.173 198.204C426.173 189.312 428.255 180.554 432.24 172.684C436.225 164.815 441.993 158.071 449.046 153.034C456.091 158.077 461.849 164.823 465.826 172.692C469.803 180.561 471.878 189.317 471.874 198.204Z" fill="#154048"/>
<path d="M462.604 178.348C462.369 178.144 462.065 178.044 461.759 178.072C461.454 178.099 461.171 178.25 460.972 178.493L450.18 191.816V169.601C450.18 169.282 450.058 168.976 449.841 168.75C449.624 168.525 449.33 168.398 449.023 168.398C448.716 168.398 448.421 168.525 448.204 168.75C447.987 168.976 447.865 169.282 447.865 169.601V211.858L429.674 195.936C429.439 195.731 429.135 195.63 428.829 195.658C428.522 195.685 428.239 195.838 428.041 196.082C427.843 196.326 427.747 196.642 427.773 196.96C427.8 197.278 427.946 197.572 428.181 197.778L447.865 215.006V243.374C447.865 243.693 447.987 243.999 448.204 244.225C448.421 244.45 448.716 244.577 449.023 244.577C449.33 244.577 449.624 244.45 449.841 244.225C450.058 243.999 450.18 243.693 450.18 243.374V195.554L462.744 180.044C462.942 179.799 463.038 179.483 463.012 179.166C462.985 178.848 462.839 178.554 462.604 178.348Z" fill="white"/>
<path d="M511.71 273.04C507.768 277.758 502.782 281.411 497.18 283.682C491.577 285.954 485.528 286.776 479.552 286.079C478.043 280.028 477.975 273.687 479.351 267.602C480.728 261.517 483.51 255.871 487.455 251.152C491.401 246.433 496.392 242.782 501.999 240.514C507.606 238.246 513.659 237.429 519.638 238.134C521.138 244.184 521.201 250.523 519.82 256.603C518.439 262.684 515.655 268.325 511.71 273.04Z" fill="#154048"/>
<path d="M515.601 258.062C515.566 257.84 515.449 257.642 515.275 257.51C515.1 257.378 514.883 257.323 514.67 257.357L503.031 259.259L512.889 247.469C513.03 247.3 513.101 247.079 513.086 246.856C513.071 246.632 512.971 246.424 512.808 246.277C512.645 246.13 512.432 246.056 512.217 246.072C512.002 246.087 511.801 246.191 511.66 246.361L492.909 268.787L490.32 251.625C490.282 251.407 490.164 251.213 489.991 251.084C489.817 250.956 489.602 250.903 489.391 250.938C489.181 250.972 488.991 251.091 488.864 251.268C488.737 251.446 488.682 251.669 488.711 251.888L491.513 270.458L478.925 285.513C478.783 285.682 478.712 285.903 478.727 286.127C478.743 286.351 478.843 286.559 479.006 286.706C479.169 286.853 479.381 286.927 479.596 286.911C479.812 286.896 480.012 286.792 480.154 286.622L501.372 261.244L514.922 259.029C515.136 258.994 515.327 258.873 515.454 258.691C515.581 258.51 515.634 258.284 515.601 258.062V258.062Z" fill="white"/>
<path d="M400.566 231.982C405.108 236.077 408.623 241.257 410.81 247.077C412.997 252.897 413.789 259.182 413.118 265.391C407.293 266.958 401.189 267.03 395.332 265.599C389.475 264.169 384.04 261.279 379.498 257.18C374.955 253.081 371.441 247.896 369.258 242.071C367.075 236.246 366.289 229.957 366.967 223.746C372.791 222.186 378.892 222.121 384.745 223.556C390.598 224.991 396.027 227.883 400.566 231.982Z" fill="#0F4960"/>
<path d="M386.148 227.94C385.936 227.976 385.745 228.097 385.618 228.278C385.491 228.459 385.438 228.685 385.471 228.907L387.302 240.998L375.953 230.757C375.79 230.61 375.577 230.536 375.362 230.552C375.147 230.568 374.946 230.672 374.805 230.841C374.663 231.01 374.592 231.231 374.607 231.455C374.623 231.679 374.723 231.887 374.886 232.034L396.473 251.514L379.953 254.204C379.846 254.219 379.742 254.257 379.649 254.314C379.556 254.371 379.474 254.447 379.41 254.537C379.345 254.628 379.299 254.731 379.273 254.84C379.247 254.949 379.242 255.063 379.259 255.174C379.276 255.285 379.314 255.392 379.371 255.487C379.428 255.583 379.502 255.666 379.591 255.732C379.679 255.797 379.779 255.843 379.884 255.868C379.99 255.893 380.099 255.895 380.206 255.876L398.081 252.965L412.572 266.042C412.653 266.115 412.746 266.17 412.848 266.206C412.949 266.241 413.056 266.255 413.163 266.247C413.27 266.239 413.374 266.21 413.469 266.16C413.565 266.111 413.65 266.042 413.72 265.958C413.79 265.874 413.844 265.777 413.878 265.672C413.912 265.566 413.925 265.455 413.918 265.344C413.91 265.234 413.882 265.126 413.834 265.026C413.786 264.927 413.72 264.838 413.64 264.765L389.211 242.721L387.08 228.644C387.046 228.423 386.929 228.224 386.755 228.092C386.58 227.96 386.362 227.905 386.148 227.94Z" fill="white"/>
<path d="M486.039 457.952C439.83 435.222 450.386 329.932 450.506 328.704V298.452H469.542L481.463 286.065L479.365 283.885L468.313 295.369H450.506V238.187H447.538L447.543 281.906H431.03L412.738 262.903L410.64 265.083L429.801 284.989H447.544L447.549 328.535C447.081 332.957 436.656 437.069 484.768 460.736C529.39 482.687 547.236 510.474 539.321 545.679L539.016 547.04C510.115 675.949 458.774 744.908 390.544 746.455C306.398 748.375 296.565 737.577 296.244 732.851C295.666 724.239 322.866 711.589 342.445 709.178C353.36 707.834 358.709 705.117 358.345 701.102C357.56 692.462 325.704 685.448 279.549 688.836C246.143 691.282 232.749 683.483 227.39 676.514C225.567 674.136 224.297 671.354 223.677 668.384C223.058 665.413 223.106 662.334 223.818 659.386L220.98 658.488C220.855 658.917 217.953 669.139 225.033 678.389C233.456 689.39 251.88 693.947 279.755 691.909C328.761 688.345 354.986 696.934 355.391 701.39C355.469 702.243 353.23 704.744 342.098 706.116C324.461 708.291 292.464 720.867 293.287 733.065C294.035 744.157 320.436 749.759 371.839 749.759C377.762 749.759 384.018 749.685 390.609 749.538C439.237 748.432 504.961 712.527 541.908 547.74L542.213 546.379C550.491 509.543 532.113 480.617 486.039 457.952Z" fill="black"/>
<path fill-rule="evenodd" clip-rule="evenodd" d="M445.781 323.503C451.26 327.569 452.045 332.452 450.045 338.431C448.045 344.411 443.985 342.804 443.985 342.804L445.781 323.503ZM630.244 481.376C623.119 490.05 593.933 496.623 542.687 501.095L541.964 497.741L540.461 490.917L611.43 468.249C604.639 450.091 598.312 431.047 592.449 411.115C587.662 396.485 591.225 373.47 599.574 376.419C606.031 380.293 614.77 396.427 621.727 415.163C631.079 440.376 637.202 470.331 630.244 481.376Z" fill="#FFC7A1"/>
<path fill-rule="evenodd" clip-rule="evenodd" d="M542.687 501.095C542.687 501.095 532.445 511.215 527.325 503.119C526.935 502.483 526.545 501.847 526.211 501.211C522.649 493.346 526.1 484.152 540.461 490.917L541.964 497.741L542.687 501.095Z" fill="#FFC7A1"/>
<path opacity="0.1" fill-rule="evenodd" clip-rule="evenodd" d="M630.244 481.376C623.119 490.05 593.933 496.623 542.687 501.095C542.687 501.095 532.445 511.215 527.324 503.119C526.935 502.483 526.545 501.847 526.211 501.211C528.271 499.591 530.942 498.724 533.614 498.319C536.397 497.857 539.181 497.914 541.963 497.741C542.798 497.683 543.633 497.626 544.468 497.51C549.2 496.874 553.652 495.139 558.217 493.809C570.574 490.166 583.487 489.472 596.067 487.159C605.641 485.366 616.217 481.665 620.058 472.413C623.564 464.027 620.113 454.428 619.056 445.292C617.942 435.75 619.724 426.382 621.449 417.014C621.56 416.378 621.672 415.741 621.727 415.163C631.079 440.376 637.201 470.331 630.244 481.376Z" fill="black"/>
<path fill-rule="evenodd" clip-rule="evenodd" d="M567.976 348.315C566.289 347.134 564.839 349.401 562.822 349.125C560.9 348.861 559.454 348.65 558.271 347.054C555.107 342.79 555.231 338.711 556.217 333.425C556.94 329.54 558.16 327.078 561.217 324.717C563.366 323.059 565.212 322.665 567.872 322.986C574.349 323.768 576.322 329.627 582.716 330.954C586.073 331.65 588.215 329.062 591.458 330.202C592.571 330.593 592.959 331.346 593.693 332.3C594.75 333.677 595.641 334.485 595.819 336.237C596.287 340.856 591.588 343.04 592.422 347.602C593.485 353.421 598.979 354.16 601.562 359.439C602.584 361.528 602.016 363.165 603.072 365.235C604.375 367.788 606.562 368.22 607.72 370.847C609.514 374.917 610.473 377.87 609.349 382.191C609.316 382.316 609.147 382.32 609.149 382.449C609.638 409.901 650.324 408.389 653.457 435.651C655.463 453.101 648.113 466.636 633.612 475.685C628.928 478.608 624.366 478.292 619.614 475.491C612.699 471.415 614.837 463 608.931 457.47C595.902 445.271 578.114 452.429 568.427 437.239C561.869 426.953 566.279 417.977 566.98 405.661C567.796 391.318 573.301 383.708 572.822 369.349C572.541 360.914 574.715 353.031 567.976 348.315Z" fill="black"/>
<path d="M142.035 379.17L89.8844 402.104C88.7308 402.611 87.4304 402.622 86.2693 402.133C85.1082 401.644 84.1815 400.696 83.693 399.498L70.0652 366.05C69.5769 364.851 69.5668 363.5 70.0372 362.294C70.5076 361.088 71.4199 360.125 72.5736 359.618L124.724 336.684C125.878 336.177 127.178 336.167 128.339 336.656C129.5 337.144 130.427 338.092 130.915 339.29L144.544 372.738C144.785 373.331 144.912 373.968 144.917 374.613C144.922 375.257 144.805 375.896 144.572 376.494C144.339 377.091 143.995 377.635 143.56 378.094C143.124 378.553 142.606 378.919 142.035 379.17Z" fill="#2B808F"/>
<path d="M74.7928 362.545L125.202 340.376C126.238 339.92 127.407 339.911 128.451 340.35C129.494 340.79 130.327 341.642 130.766 342.719L142.071 370.463C142.288 370.996 142.402 371.569 142.406 372.148C142.411 372.727 142.305 373.302 142.096 373.839C141.886 374.375 141.577 374.864 141.186 375.277C140.795 375.69 140.329 376.018 139.816 376.244L89.407 398.412C88.8936 398.638 88.3424 398.756 87.7849 398.761C87.2274 398.765 86.6745 398.656 86.1578 398.438C85.6411 398.221 85.1707 397.9 84.7734 397.493C84.3761 397.087 84.0598 396.603 83.8425 396.07L72.5381 368.326C72.0992 367.248 72.0902 366.034 72.513 364.95C72.9358 363.866 73.7559 363.001 74.7928 362.545Z" fill="white"/>
<path d="M121.204 390.87L120.233 388.486L111.498 392.327L112.469 394.711L104.787 404.398C106.032 407.453 134.491 394.938 133.246 391.883L121.204 390.87Z" fill="#154048"/>
<path d="M333.745 395.786L329.034 402.217C328.237 403.306 327.242 404.221 326.105 404.909C324.967 405.598 323.711 406.047 322.407 406.231C321.102 406.415 319.776 406.33 318.503 405.982C317.23 405.633 316.036 405.027 314.989 404.199L313.037 402.655C311.989 401.827 311.109 400.793 310.446 399.612C309.783 398.43 309.351 397.125 309.174 395.77C308.997 394.415 309.078 393.037 309.414 391.714C309.75 390.392 310.333 389.152 311.13 388.064L315.841 381.632L333.745 395.786Z" fill="#2B808F"/>
<path opacity="0.1" d="M333.745 395.786L329.034 402.218C328.237 403.306 327.242 404.221 326.105 404.909C324.967 405.598 323.711 406.047 322.407 406.231C321.102 406.415 319.776 406.33 318.503 405.982C317.23 405.633 316.036 405.027 314.989 404.199L313.037 402.655C311.989 401.827 311.109 400.793 310.446 399.612C309.783 398.43 309.351 397.125 309.174 395.77C308.997 394.415 309.078 393.037 309.414 391.715C309.75 390.392 310.333 389.152 311.13 388.064L311.215 387.948C312.679 389.196 313.45 391.27 314.419 392.952C316.235 396.125 319.624 398.713 323.021 397.922C324.762 397.468 326.243 396.168 327.346 394.662C327.867 393.741 328.309 392.774 328.669 391.773L333.745 395.786Z" fill="black"/>
<path d="M322.681 391.608C319.147 388.815 316.49 384.996 315.046 380.634C313.602 376.272 313.435 371.563 314.567 367.102C315.699 362.642 318.078 358.63 321.405 355.575C324.731 352.519 328.855 350.557 333.255 349.936C337.655 349.316 342.133 350.065 346.123 352.088C350.113 354.112 353.436 357.319 355.671 361.304C357.907 365.29 358.955 369.875 358.682 374.479C358.41 379.083 356.829 383.5 354.14 387.171C350.531 392.087 345.191 395.315 339.294 396.147C333.396 396.979 327.422 395.346 322.681 391.608ZM345.626 360.281C343.195 358.36 340.271 357.231 337.223 357.036C334.175 356.841 331.139 357.59 328.501 359.187C325.862 360.785 323.739 363.159 322.399 366.01C321.06 368.862 320.564 372.062 320.975 375.205C321.385 378.349 322.684 381.296 324.707 383.673C326.73 386.05 329.386 387.75 332.339 388.559C335.292 389.368 338.409 389.249 341.297 388.217C344.185 387.185 346.714 385.287 348.563 382.762C351.039 379.374 352.12 375.105 351.569 370.891C351.018 366.676 348.881 362.861 345.626 360.281Z" fill="#154048"/>
<path d="M353.243 349.882C352.985 349.678 352.767 349.423 352.604 349.131C352.44 348.84 352.334 348.518 352.29 348.184C352.246 347.849 352.266 347.51 352.349 347.183C352.432 346.857 352.576 346.551 352.772 346.283L356.647 340.993C357.044 340.451 357.632 340.095 358.282 340.003C358.931 339.912 359.589 340.092 360.111 340.504C360.369 340.709 360.586 340.964 360.75 341.255C360.913 341.546 361.02 341.868 361.064 342.203C361.107 342.537 361.087 342.877 361.005 343.203C360.922 343.529 360.778 343.835 360.581 344.103L356.707 349.393C356.31 349.935 355.722 350.291 355.072 350.383C354.423 350.474 353.765 350.294 353.243 349.882ZM339.821 344.172C339.499 344.129 339.188 344.021 338.906 343.854C338.625 343.686 338.377 343.463 338.179 343.196C337.98 342.929 337.834 342.624 337.749 342.299C337.663 341.974 337.641 341.634 337.682 341.299L338.491 334.705C338.532 334.371 338.636 334.048 338.797 333.755C338.959 333.463 339.174 333.206 339.43 332.999C339.687 332.793 339.981 332.641 340.294 332.553C340.607 332.464 340.934 332.44 341.256 332.483C341.906 332.569 342.497 332.92 342.898 333.459C343.299 333.997 343.478 334.68 343.395 335.355L342.585 341.949C342.544 342.284 342.44 342.606 342.279 342.899C342.118 343.192 341.903 343.449 341.646 343.655C341.39 343.862 341.096 344.014 340.783 344.102C340.47 344.191 340.143 344.214 339.821 344.172ZM362.118 361.799C362.244 362.11 362.427 362.392 362.657 362.63C362.888 362.867 363.161 363.055 363.462 363.183C363.762 363.311 364.084 363.376 364.408 363.374C364.733 363.373 365.054 363.305 365.354 363.175L371.255 360.606C371.554 360.476 371.826 360.286 372.055 360.046C372.283 359.807 372.464 359.523 372.587 359.211C372.71 358.899 372.773 358.565 372.772 358.228C372.77 357.89 372.705 357.557 372.58 357.246C372.454 356.935 372.271 356.652 372.041 356.415C371.81 356.177 371.537 355.989 371.237 355.861C370.936 355.733 370.614 355.668 370.29 355.67C369.965 355.671 369.644 355.739 369.345 355.869L363.443 358.438C363.144 358.568 362.872 358.758 362.643 358.998C362.415 359.237 362.234 359.521 362.111 359.833C361.988 360.145 361.925 360.48 361.926 360.817C361.928 361.154 361.993 361.488 362.118 361.799Z" fill="#2B808F"/>
</svg>
