<svg width="110" height="23" viewBox="0 0 110 23" fill="none" xmlns="http://www.w3.org/2000/svg">
<path d="M10 0.655998H13.104C12.72 5.584 12.56 10.512 12.368 15.408C12.272 17.712 12.24 22.352 5.616 22.352C4.08 22.352 2.544 22.096 1.04 21.776L0.848 19.344C2.256 19.76 3.856 20.208 5.328 20.208C6.928 20.208 8.752 19.44 9.264 17.392C9.744 15.408 9.872 8.368 10 0.655998ZM22.6943 15.056H14.8223L14.9183 12.912H22.7903L22.6943 15.056ZM29.895 22L22.983 0.655998H26.023C27.815 6.928 29.703 13.168 31.719 19.376C33.319 16.048 34.855 12.72 36.263 9.328C35.367 6.416 34.407 3.536 33.383 0.655998H36.455L37.959 5.872C38.759 4.176 39.463 2.416 40.103 0.655998H43.207C41.799 3.536 40.455 6.416 39.143 9.328C40.135 12.72 41.191 16.08 42.343 19.376C45.159 13.2 47.911 6.96 50.535 0.655998H53.575L43.751 22H40.487C39.591 18.896 38.599 15.824 37.511 12.784C35.975 15.792 34.535 18.896 33.159 22H29.895ZM70.2215 11.92L76.6535 22H73.3255C71.3415 17.968 68.8135 14.224 66.5415 10.352C67.2135 10.48 67.9175 10.576 68.6215 10.576C71.4055 10.576 74.0295 9.2 74.0295 6.096C74.0295 3.152 71.8535 2.736 70.1255 2.736H65.5175C65.2295 9.136 65.0055 15.568 64.9415 22H61.8695C62.3495 15.472 62.7015 9.2 62.7335 0.655998H70.8935C73.9655 0.655998 76.9735 1.904 76.9735 5.808C76.9735 9.072 74.5735 11.792 70.2215 11.92ZM80.6718 0.655998H94.4958L94.3678 2.864C92.3518 2.736 90.3358 2.736 88.3198 2.736H83.5518L83.2638 10.128H93.0238L92.8958 12.208H83.1678L82.8478 19.92H86.2078C88.7358 19.92 91.2318 19.888 93.7278 19.728L93.5998 22H79.7758C80.2878 14.896 80.5758 7.792 80.6718 0.655998ZM108.657 0.783998L108.881 3.28C107.473 2.768 106.033 2.448 104.529 2.448C101.841 2.448 100.497 3.952 100.497 5.36C100.497 9.328 109.489 11.952 109.489 17.04C109.489 21.008 105.841 22.352 102.481 22.352C100.593 22.352 98.7685 21.936 96.9765 21.456L96.7525 18.832C98.3845 19.6 100.305 20.208 102.129 20.208C104.113 20.208 106.545 19.568 106.545 16.88C106.545 13.488 97.5525 10.096 97.5525 5.68C97.5525 2.608 99.5365 0.303999 104.209 0.303999C105.713 0.303999 107.185 0.528 108.657 0.783998Z" fill="white"/>
<path d="M55.0995 6.16H57.9475C57.5635 11.44 57.3715 16.72 57.3395 22H54.3955C54.8115 16.72 55.0355 11.44 55.0995 6.16ZM58.1075 2.864H55.0995L55.1635 0.655998H58.1715L58.1075 2.864Z" fill="#FF0202"/>
</svg>
